<?xml version="1.0" encoding="UTF-8" standalone="no"?>
<!-- Created with Inkscape (http://www.inkscape.org/) -->

<svg xmlns:dc="http://purl.org/dc/elements/1.1/" xmlns:cc="http://creativecommons.org/ns#" xmlns:rdf="http://www.w3.org/1999/02/22-rdf-syntax-ns#" xmlns:svg="http://www.w3.org/2000/svg" xmlns="http://www.w3.org/2000/svg" xmlns:sodipodi="http://sodipodi.sourceforge.net/DTD/sodipodi-0.dtd" xmlns:inkscape="http://www.inkscape.org/namespaces/inkscape" width="256" height="256" viewBox="0 0 256 256" version="1.1" id="svg8" inkscape:version="0.92.4 (5da689c313, 2019-01-14)" sodipodi:docname="NekoGaming_1.svg" inkscape:export-filename=".\NekoGaming_1.png" inkscape:export-xdpi="96" inkscape:export-ydpi="96" style="enable-background:new">
  <title id="title6690">Neko Emblem</title>
  <defs id="defs2" />
  <sodipodi:namedview id="base" pagecolor="black" bordercolor="#666666" borderopacity="1.0" inkscape:pageopacity="0" inkscape:pageshadow="2" inkscape:zoom="0.35" inkscape:cx="400" inkscape:cy="560" inkscape:document-units="px" inkscape:current-layer="layer1" showgrid="false" units="px" showguides="false" inkscape:guide-bbox="true">
    <sodipodi:guide position="800,800" orientation="0,1" id="guide837" inkscape:locked="false" inkscape:label="" inkscape:color="rgb(0,0,255)" />
    <sodipodi:guide position="200,800" orientation="1,0" id="guide842" inkscape:locked="false" inkscape:label="" inkscape:color="rgb(0,0,255)" />
    <sodipodi:guide position="200,200" orientation="0,1" id="guide844" inkscape:locked="false" inkscape:label="" inkscape:color="rgb(0,0,255)" />
    <sodipodi:guide position="800,200" orientation="1,0" id="guide846" inkscape:locked="false" inkscape:label="" inkscape:color="rgb(0,0,255)" />
  </sodipodi:namedview>
  <metadata id="metadata5">
    <rdf:RDF>
      <cc:Work rdf:about="">
        <dc:format>image/svg+xml</dc:format>
        <dc:type rdf:resource="http://purl.org/dc/dcmitype/StillImage" />
        <dc:title>Neko Emblem</dc:title>
      </cc:Work>
    </rdf:RDF>
  </metadata>
  <g inkscape:label="Image" inkscape:groupmode="layer" id="layer1" transform="translate(0,-781.275)">
    <circle style="fill:#0080ff;fill-opacity:1;stroke:none;stroke-width:31.087902;stroke-linecap:butt;stroke-linejoin:round;stroke-miterlimit:4;stroke-dasharray:none;stroke-opacity:1;paint-order:stroke fill markers" id="path818" cx="128" cy="909.274" r="128" />
    <path style="display:inline;opacity:1;fill:white;fill-opacity:1;stroke:none;stroke-width:4.626172;stroke-linecap:butt;stroke-linejoin:round;stroke-miterlimit:4;stroke-dasharray:none;stroke-opacity:1;paint-order:markers stroke fill" d="m 48.0335,830.773 c 0,0 -1.0962,30.031 9.2987,77.299 0.084,0.384 0.1648,0.742 0.2477,1.112 -0.3144,3.203 -0.4135,6.423 -0.2967,9.64 1.7784,37.861 32.6177,67.926 70.7178,68.953 38.1,-1.027 68.939,-31.092 70.717,-68.953 0.121,-3.217 0.03,-6.437 -0.298,-9.64 0.08,-0.371 0.163,-0.728 0.249,-1.112 10.394,-47.267 9.298,-77.299 9.298,-77.299 0,0 -21.224,0.345 -63.766,14.787 -4.9,-1.294 -9.923,-2.074 -14.987,-2.33 -0.405,0 -0.808,0 -1.213,0 -0.406,0 -0.809,0 -1.214,0 -5.062,0.256 -10.086,1.037 -14.986,2.33 C 69.2581,831.117 48.0335,830.773 48.0335,830.773 Z m 5.6689,16.19 15.8979,28.384 c -3.7663,5.598 -6.7296,11.693 -8.8033,18.104 -1.7822,-3.25 -8.7352,-17.92 -7.0946,-46.488 z m 148.5956,0 c 1.64,28.568 -5.312,43.238 -7.096,46.488 -2.072,-6.411 -5.035,-12.507 -8.803,-18.104 z m -74.297,6.247 c 0.06,0 0.141,0 0.21,0 34.345,1.543 60.94,30.692 59.401,65.106 -1.485,32.308 -27.365,58.154 -59.611,59.5 -32.2468,-1.346 -58.1277,-27.192 -59.6135,-59.5 -1.5376,-34.414 25.0574,-63.565 59.4025,-65.103 0.06,0 0.141,0 0.211,0 z" id="path822" inkscape:connector-curvature="0" />
  </g>
</svg>
